<svg width="14" height="15" viewBox="0 0 14 15" fill="none" xmlns="http://www.w3.org/2000/svg">
<path d="M6.33941 10.8075L5.10125 12.0412C4.58941 12.553 3.75371 12.553 3.24187 12.0412L2.00372 10.803C1.49615 10.2957 1.49615 9.45999 2.00372 8.94815L3.24187 7.70999L6.33941 10.8075ZM12.2149 7.39938L6.64553 1.83429C6.5494 1.73367 6.40926 1.68561 6.27361 1.7074C6.13369 1.7294 6.01556 1.8125 5.94997 1.93491L3.44311 6.67307L7.38488 10.6151L12.1098 8.09494C12.2324 8.03384 12.3157 7.91122 12.3375 7.77557C12.3593 7.63565 12.311 7.5 12.2149 7.39938ZM2.62493 12.6581L1.38677 11.42C1.21181 11.245 1.07616 11.0526 0.975547 10.8426C0.756797 11.455 0.89672 12.1681 1.38677 12.6581C1.71938 12.9905 2.15688 13.1745 2.62493 13.1745C2.82616 13.1745 3.02312 13.1394 3.20684 13.0739C2.99236 12.973 2.79562 12.8331 2.62493 12.6581ZM7.73052 12.1944L6.96062 11.4245L5.71798 12.6624C5.61309 12.7675 5.49923 12.8594 5.37682 12.9382L6.18175 13.7431C6.38747 13.9489 6.66305 14.0625 6.95614 14.0625C7.24923 14.0625 7.52502 13.9489 7.73052 13.7431C8.15478 13.3144 8.15478 12.6231 7.73052 12.1944ZM9.18743 2.25021V1.37521C9.18743 1.13361 8.99175 0.937714 8.74993 0.937714C8.50811 0.937714 8.31243 1.13361 8.31243 1.37521V2.25021C8.31243 2.49182 8.50811 2.68771 8.74993 2.68771C8.99175 2.68771 9.18743 2.49182 9.18743 2.25021ZM13.1249 5.3125C13.1249 5.07089 12.9293 4.875 12.6874 4.875H11.8124C11.5706 4.875 11.3749 5.07089 11.3749 5.3125C11.3749 5.55411 11.5706 5.75 11.8124 5.75H12.6874C12.9293 5.75 13.1249 5.55411 13.1249 5.3125ZM10.8093 3.87183L11.6843 2.99683C11.8552 2.82593 11.8552 2.54907 11.6843 2.37817C11.5134 2.20728 11.2365 2.20728 11.0656 2.37817L10.1906 3.25317C10.0197 3.42407 10.0197 3.70093 10.1906 3.87183C10.2761 3.95728 10.388 4 10.4999 4C10.6119 4 10.7238 3.95728 10.8093 3.87183Z" fill="#E69514"/>
</svg>
