<svg xmlns="http://www.w3.org/2000/svg" width="16.188" height="18.5" viewBox="0 0 16.188 18.5">
  <path id="Icon_awesome-fire-alt" data-name="Icon awesome-fire-alt" d="M11.691,1.85A21.585,21.585,0,0,0,9.66,4.017,28.035,28.035,0,0,0,6.07,0C2.52,3.294,0,7.586,0,10.175A8.212,8.212,0,0,0,8.094,18.5a8.212,8.212,0,0,0,8.094-8.325c0-1.925-1.878-5.895-4.5-8.325Zm-.7,12.309a4.856,4.856,0,0,1-2.791.873,4.45,4.45,0,0,1-4.728-4.526c0-1.4.878-2.624,2.63-4.724.25.288,3.571,4.529,3.571,4.529l2.118-2.417c.15.248.286.49.407.722A4.31,4.31,0,0,1,10.988,14.159Z" fill="#ffd359"/>
</svg>
